<svg width="19" height="20" viewBox="0 0 19 20" fill="none" xmlns="http://www.w3.org/2000/svg">
<path fill-rule="evenodd" clip-rule="evenodd" d="M9.5 1.66663C14.1275 1.66663 17.8235 5.37253 17.8235 9.99998C17.8235 14.6274 14.1373 18.3333 9.5098 18.3333C4.88232 18.3333 1.17643 14.6274 1.16663 9.99998C1.15682 5.37253 4.87252 1.66663 9.5 1.66663ZM10.2353 14.2549C10.2353 14.6863 9.92157 14.9902 9.5 14.9902C9.06863 14.9902 8.76471 14.6863 8.76471 14.2549L8.76471 9.35292L8.84314 7.27443L7.84318 8.46071L6.68631 9.63724C6.55887 9.7745 6.38241 9.85292 6.16663 9.85292C5.76471 9.85292 5.45101 9.5392 5.45101 9.14704C5.45101 8.94116 5.52943 8.76473 5.65687 8.63729L8.92157 5.37253C9.10785 5.18627 9.28431 5.09804 9.5 5.09804C9.70589 5.09804 9.87255 5.17647 10.0686 5.37253L13.3431 8.63729C13.4706 8.76473 13.5294 8.94116 13.5294 9.14704C13.5294 9.5392 13.2255 9.85292 12.8235 9.85292C12.6177 9.85292 12.4412 9.76469 12.3039 9.63724L11.1373 8.46071L10.1569 7.28423L10.2353 9.35292L10.2353 14.2549Z" fill="#8CA5AD"/>
<path fill-rule="evenodd" clip-rule="evenodd" d="M10.2353 14.2549C10.2353 14.6863 9.92157 14.9902 9.5 14.9902C9.06863 14.9902 8.76471 14.6863 8.76471 14.2549L8.76471 9.35292L8.84314 7.27443L7.84318 8.46071L6.68631 9.63724C6.55887 9.7745 6.38241 9.85292 6.16663 9.85292C5.76471 9.85292 5.45101 9.5392 5.45101 9.14704C5.45101 8.94116 5.52943 8.76473 5.65687 8.63729L8.92157 5.37253C9.10785 5.18627 9.28431 5.09804 9.5 5.09804C9.70589 5.09804 9.87255 5.17647 10.0686 5.37253L13.3431 8.63729C13.4706 8.76473 13.5294 8.94116 13.5294 9.14704C13.5294 9.5392 13.2255 9.85292 12.8235 9.85292C12.6177 9.85292 12.4412 9.76469 12.3039 9.63724L11.1373 8.46071L10.1569 7.28423L10.2353 9.35292L10.2353 14.2549Z" fill="white"/>
<path fill-rule="evenodd" clip-rule="evenodd" d="M9.5 0.5C4.02946 0.5 0 4.53918 0 10C0 15.4706 4.03926 19.5 9.5098 19.5C14.9706 19.5 19 15.4706 19 10C19 4.53918 14.9608 0.5 9.5 0.5ZM17.8235 9.99998C17.8235 5.37253 14.1275 1.66663 9.5 1.66663C4.87252 1.66663 1.15682 5.37253 1.16663 9.99998C1.17643 14.6274 4.88232 18.3333 9.5098 18.3333C14.1373 18.3333 17.8235 14.6274 17.8235 9.99998Z" fill="#8CA5AD"/>
</svg>
